<svg xmlns="http://www.w3.org/2000/svg" viewBox="0 0 680 680">
  <rect x="0" y="0" width="680" height="680" rx="120" fill="#9b1c1c"/>
  <rect x="174" y="154" width="290" height="370" rx="18" fill="#7f1d1d" opacity="0.6"/>
  <rect x="164" y="144" width="290" height="370" rx="18" fill="#fbbf24"/>
  <rect x="164" y="144" width="290" height="62" rx="18" fill="#f59e0b"/>
  <rect x="164" y="174" width="290" height="32" fill="#f59e0b"/>
  <circle cx="220" cy="175" r="8" fill="#fef3c7"/>
  <circle cx="260" cy="175" r="8" fill="#fef3c7"/>
  <circle cx="300" cy="175" r="8" fill="#fef3c7"/>
  <circle cx="340" cy="175" r="8" fill="#fef3c7"/>
  <circle cx="380" cy="175" r="8" fill="#fef3c7"/>
  <line x1="204" y1="248" x2="424" y2="248" stroke="#fde68a" stroke-width="12" stroke-linecap="round"/>
  <line x1="204" y1="298" x2="424" y2="298" stroke="#fde68a" stroke-width="12" stroke-linecap="round"/>
  <line x1="204" y1="348" x2="424" y2="348" stroke="#fde68a" stroke-width="12" stroke-linecap="round"/>
  <line x1="204" y1="398" x2="424" y2="398" stroke="#fde68a" stroke-width="12" stroke-linecap="round"/>
  <line x1="204" y1="448" x2="340" y2="448" stroke="#fde68a" stroke-width="12" stroke-linecap="round"/>
  <g transform="translate(480, 200) rotate(45)">
    <rect x="-18" y="-20" width="36" height="22" rx="4" fill="#9ca3af"/>
    <rect x="-18" y="-38" width="36" height="20" rx="4" fill="#fca5a5"/>
    <rect x="-18" y="2" width="36" height="200" fill="#b91c1c"/>
    <polygon points="-18,202 18,202 0,252" fill="#fde68a"/>
    <polygon points="-6,236 6,236 0,252" fill="#1f2937"/>
    <rect x="-4" y="2" width="8" height="200" fill="#ef4444" opacity="0.4"/>
  </g>
</svg>
